# xmcd
#
# Track frame offsets:
#	150
#	2267
#	6065
#	9475
#	14152
#	18902
#	21872
#	25960
#	29455
#	32475
#	35950
#	39375
#	43052
#	47087
#	50220
#	56750
#	60642
#	66915
#	70085
#	72737
#	76795
#	80022
#	86437
#	91530
#	95602
#	100767
#	107372
#	111387
#	116917
#	127252
#	135975
#	141210
#	145970
#	151277
#	156130
#	168970
#	182865
#
# Disc length: 2627 seconds
#
# Revision: 0
# Processed by: cddbd v1.5.1PL2 Copyright (c) Steve Scherf et al.
# Submitted via: dBpowerAMP V4.0
#
DISCID=f60a4125
DTITLE=DeWitt Scott - Basic C6 Nonpedal Lap Steel Method
DYEAR=1996
DGENRE=Lap Steel
TTITLE0=Tuning
TTITLE1=Sidewalks of Nashville
TTITLE2=Sandy Ann
TTITLE3=Banks of The Ohio
TTITLE4=Banks of The Ohio-New Positions
TTITLE5=Mexican Dance
TTITLE6=Precious Memories
TTITLE7=Careless Love
TTITLE8=Bile Dem Cabbage Down
TTITLE9=Red River Valley
TTITLE10=Clock Wise
TTITLE11=Swedish Waltz
TTITLE12=I'm Thinking Tonight of my Blue Eyes
TTITLE13=Waltzing With Brenda
TTITLE14=Careless Love
TTITLE15=Precious Memories in Harmony
TTITLE16=Lovely Maori Girl
TTITLE17=Wildwood Flower
TTITLE18=Little Brown Jug
TTITLE19=Joy to The World
TTITLE20=On Top of Old Smokey
TTITLE21=Sweet Hour of Prayer
TTITLE22=Country Style Steel
TTITLE23=Can I Sleep in Your Barn
TTITLE24=The Scottish Waltz
TTITLE25=Greensleeves
TTITLE26=Amazing Grace
TTITLE27=My Wild Irish Rose
TTITLE28=I'll be All Smiles Tonight
TTITLE29=Aloha Oe
TTITLE30=Aura Lee
TTITLE31=Wabash Cannonball
TTITLE32=Shenandoah
TTITLE33=Byrds
TTITLE34=The Great Speckled Bird
TTITLE35=St. Louis Blues
TTITLE36=St. Louis Blues (Rhythm Track)
EXTD=
EXTT0=
EXTT1=
EXTT2=
EXTT3=
EXTT4=
EXTT5=
EXTT6=
EXTT7=
EXTT8=
EXTT9=
EXTT10=
EXTT11=
EXTT12=
EXTT13=
EXTT14=
EXTT15=
EXTT16=
EXTT17=
EXTT18=
EXTT19=
EXTT20=
EXTT21=
EXTT22=
EXTT23=
EXTT24=
EXTT25=
EXTT26=
EXTT27=
EXTT28=
EXTT29=
EXTT30=
EXTT31=
EXTT32=
EXTT33=
EXTT34=
EXTT35=
EXTT36=
PLAYORDER=
